<?xml version="1.0" encoding="UTF-8"?>
<svg xmlns="http://www.w3.org/2000/svg" style="display:none">
  <symbol id="icon-controller" viewBox="0 0 24 24">
    <path d="M7.6 10.4h8.8c1.5 0 2.8 1.2 3 2.7l.6 4.2c.2 1.4-1 2.7-2.4 2.7-1 0-1.8-.5-2.2-1.4l-.7-1.6c-.2-.5-.7-.9-1.3-.9H10c-.5 0-1 .3-1.3.9l-.7 1.6c-.4.9-1.2 1.4-2.2 1.4-1.4 0-2.6-1.3-2.4-2.7l.6-4.2c.2-1.5 1.5-2.7 3-2.7Z" fill="currentColor" opacity="0.9"/>
    <path d="M8.6 13.2h2.6" stroke="#fff" stroke-width="1.6" stroke-linecap="round"/>
    <path d="M9.9 11.9v2.6" stroke="#fff" stroke-width="1.6" stroke-linecap="round"/>
    <circle cx="16.4" cy="12.7" r="0.9" fill="#93C5FD"/>
    <circle cx="17.8" cy="14.2" r="0.9" fill="#A7F3D0"/>
  </symbol>

  <symbol id="icon-server" viewBox="0 0 24 24">
    <path d="M6 5.5c0-1 .8-1.8 1.8-1.8h8.4c1 0 1.8.8 1.8 1.8v3c0 1-.8 1.8-1.8 1.8H7.8C6.8 10.3 6 9.5 6 8.5v-3Z" fill="currentColor" opacity="0.9"/>
    <path d="M6 15.5c0-1 .8-1.8 1.8-1.8h8.4c1 0 1.8.8 1.8 1.8v3c0 1-.8 1.8-1.8 1.8H7.8C6.8 20.3 6 19.5 6 18.5v-3Z" fill="currentColor" opacity="0.9"/>
    <circle cx="8.8" cy="7" r="0.7" fill="#fff"/>
    <circle cx="8.8" cy="17" r="0.7" fill="#fff"/>
    <path d="M11 7h6" stroke="#fff" stroke-width="1.2" stroke-linecap="round" opacity="0.9"/>
    <path d="M11 17h6" stroke="#fff" stroke-width="1.2" stroke-linecap="round" opacity="0.9"/>
  </symbol>

  <symbol id="icon-spark" viewBox="0 0 24 24">
    <path d="M12 2l1.3 5.1L18 8.4l-4.7 1.3L12 15l-1.3-5.3L6 8.4l4.7-1.3L12 2Z" fill="currentColor" opacity="0.9"/>
  </symbol>
</svg>
