<?xml version="1.0" encoding="UTF-8"?>
<svg xmlns="http://www.w3.org/2000/svg" style="display:none">
  <symbol id="icon-controller" viewBox="0 0 24 24">
    <path d="M7.6 10.4h8.8c1.5 0 2.8 1.2 3 2.7l.6 4.2c.2 1.4-1 2.7-2.4 2.7-1 0-1.8-.5-2.2-1.4l-.7-1.6c-.2-.5-.7-.9-1.3-.9H10c-.5 0-1 .3-1.3.9l-.7 1.6c-.4.9-1.2 1.4-2.2 1.4-1.4 0-2.6-1.3-2.4-2.7l.6-4.2c.2-1.5 1.5-2.7 3-2.7Z" fill="currentColor" opacity="0.9"/>
    <path d="M8.6 13.2h2.6" stroke="#fff" stroke-width="1.6" stroke-linecap="round"/>
    <path d="M9.9 11.9v2.6" stroke="#fff" stroke-width="1.6" stroke-linecap="round"/>
    <circle cx="16.4" cy="12.7" r="0.9" fill="#93C5FD"/>
    <circle cx="17.8" cy="14.2" r="0.9" fill="#A7F3D0"/>
  </symbol>

  <symbol id="icon-server" viewBox="0 0 24 24">
    <path d="M6 5.5c0-1 .8-1.8 1.8-1.8h8.4c1 0 1.8.8 1.8 1.8v3c0 1-.8 1.8-1.8 1.8H7.8C6.8 10.3 6 9.5 6 8.5v-3Z" fill="currentColor" opacity="0.9"/>
    <path d="M6 15.5c0-1 .8-1.8 1.8-1.8h8.4c1 0 1.8.8 1.8 1.8v3c0 1-.8 1.8-1.8 1.8H7.8C6.8 20.3 6 19.5 6 18.5v-3Z" fill="currentColor" opacity="0.9"/>
    <circle cx="8.8" cy="7" r="0.7" fill="#fff"/>
    <circle cx="8.8" cy="17" r="0.7" fill="#fff"/>
    <path d="M11 7h6" stroke="#fff" stroke-width="1.2" stroke-linecap="round" opacity="0.9"/>
    <path d="M11 17h6" stroke="#fff" stroke-width="1.2" stroke-linecap="round" opacity="0.9"/>
  </symbol>

  <symbol id="icon-spark" viewBox="0 0 24 24">
    <path d="M12 2l1.3 5.1L18 8.4l-4.7 1.3L12 15l-1.3-5.3L6 8.4l4.7-1.3L12 2Z" fill="currentColor" opacity="0.9"/>
  </symbol>

  <symbol id="icon-github" viewBox="0 0 24 24">
    <path fill="currentColor" d="M12 2C6.477 2 2 6.477 2 12c0 4.42 2.865 8.166 6.839 9.489.5.092.682-.217.682-.482 0-.237-.009-.866-.013-1.7-2.782.604-3.369-1.34-3.369-1.34-.454-1.156-1.11-1.464-1.11-1.464-.908-.62.069-.607.069-.607 1.003.07 1.531 1.03 1.531 1.03.892 1.529 2.341 1.088 2.91.832.092-.647.35-1.088.636-1.338-2.22-.253-4.555-1.11-4.555-4.943 0-1.091.39-1.984 1.029-2.683-.103-.253-.446-1.27.098-2.647 0 0 .84-.269 2.75 1.025A9.578 9.578 0 0 1 12 6.836a9.59 9.59 0 0 1 2.504.337c1.909-1.294 2.747-1.025 2.747-1.025.546 1.377.203 2.394.1 2.647.64.699 1.028 1.592 1.028 2.683 0 3.842-2.339 4.687-4.566 4.935.359.309.678.919.678 1.852 0 1.336-.012 2.415-.012 2.743 0 .267.18.578.688.48C19.138 20.163 22 16.418 22 12c0-5.523-4.477-10-10-10Z"/>
  </symbol>

  <symbol id="icon-mail" viewBox="0 0 24 24">
    <rect x="3" y="5" width="18" height="14" rx="2" fill="none" stroke="currentColor" stroke-width="1.8"/>
    <path d="M3 7l9 6 9-6" fill="none" stroke="currentColor" stroke-width="1.8" stroke-linecap="round" stroke-linejoin="round"/>
  </symbol>

  <symbol id="icon-linkedin" viewBox="0 0 24 24">
    <path fill="currentColor" d="M20.447 20.452h-3.554v-5.569c0-1.328-.027-3.037-1.852-3.037-1.853 0-2.136 1.445-2.136 2.939v5.667H9.351V9h3.414v1.561h.046c.477-.9 1.637-1.85 3.37-1.85 3.601 0 4.267 2.37 4.267 5.455v6.286zM5.337 7.433a2.062 2.062 0 0 1-2.063-2.065 2.064 2.064 0 1 1 2.063 2.065zm1.782 13.019H3.555V9h3.564v11.452z"/>
  </symbol>

  <symbol id="icon-download" viewBox="0 0 24 24">
    <path d="M12 3v13m0 0l-4-4m4 4l4-4" fill="none" stroke="currentColor" stroke-width="1.8" stroke-linecap="round" stroke-linejoin="round"/>
    <path d="M5 20h14" fill="none" stroke="currentColor" stroke-width="1.8" stroke-linecap="round"/>
  </symbol>

  <symbol id="icon-rss" viewBox="0 0 24 24">
    <circle cx="6.18" cy="17.82" r="2.18" fill="currentColor"/>
    <path d="M4 4.44v2.83c7.03 0 12.73 5.7 12.73 12.73h2.83c0-8.59-6.97-15.56-15.56-15.56Z" fill="currentColor"/>
    <path d="M4 10.1v2.83c3.9 0 7.07 3.17 7.07 7.07h2.83c0-5.47-4.43-9.9-9.9-9.9Z" fill="currentColor"/>
  </symbol>
</svg>
